<svg width="94" height="32" viewBox="0 0 94 32" fill="none" xmlns="http://www.w3.org/2000/svg">
<path d="M0 0H84C89.5229 0 94 4.47715 94 10V32H10C4.47715 32 0 27.5228 0 22V0Z" fill="black"/>
<path d="M34.0629 15.931C34.6975 16.0443 35.2359 16.3787 35.6779 16.934C36.1199 17.4893 36.3409 18.1183 36.3409 18.821C36.3409 19.4217 36.1822 19.9657 35.8649 20.453C35.5589 20.929 35.1112 21.3087 34.5219 21.592C33.9325 21.864 33.2469 22 32.4649 22H27.7389V10.185H32.2439C33.0485 10.185 33.7399 10.321 34.3179 10.593C34.8959 10.865 35.3322 11.2333 35.6269 11.698C35.9215 12.1513 36.0689 12.6613 36.0689 13.228C36.0689 13.908 35.8875 14.4747 35.5249 14.928C35.1622 15.3813 34.6749 15.7157 34.0629 15.931ZM29.6769 15.149H32.0739C32.7085 15.149 33.2015 15.0073 33.5529 14.724C33.9155 14.4293 34.0969 14.01 34.0969 13.466C34.0969 12.9333 33.9155 12.5197 33.5529 12.225C33.2015 11.919 32.7085 11.766 32.0739 11.766H29.6769V15.149ZM32.2949 20.419C32.9522 20.419 33.4679 20.2603 33.8419 19.943C34.2159 19.6257 34.4029 19.1837 34.4029 18.617C34.4029 18.039 34.2045 17.58 33.8079 17.24C33.4112 16.9 32.8842 16.73 32.2269 16.73H29.6769V20.419H32.2949ZM40.3849 11.749V15.217H44.4649V16.798H40.3849V20.419H44.9749V22H38.4469V10.168H44.9749V11.749H40.3849ZM54.9949 10.185V11.766H51.8499V22H49.9119V11.766H46.7499V10.185H54.9949ZM64.0806 19.586H59.1336L58.2836 22H56.2606L60.4936 10.168H62.7376L66.9706 22H64.9306L64.0806 19.586ZM63.5366 18.005L61.6156 12.514L59.6776 18.005H63.5366Z" fill="white"/>
</svg>
